# xmcd CD database file generated by Grip 3.2.0
# 
# Track frame offsets:
#       182
#       19750
#       35675
#       55187
#       69870
#       84002
#       101155
#       114837
#       135705
#       155167
#       168902
#       182230
#       200115
#       215160
#       235537
#       254725
# 
# Disc length: 3696 seconds
# 
# Revision: 11
# Processed by: cddbd v1.5.1PL2 Copyright (c) Steve Scherf et al.
# Submitted via: Grip 3.2.0
# 
DISCID=e00e6e10
DTITLE=Duke Ellington and his Orchestra - "...and his mother called him Bill"
DYEAR=1900
DGENRE=Jazz
TTITLE0=Snibor
TTITLE1=Boo-Dah
TTITLE2=Blood Count
TTITLE3=U.M.M.G.
TTITLE4=Charpoy
TTITLE5=After All
TTITLE6=The Intimacy Of The Blues
TTITLE7=Rain Check
TTITLE8=Day-Dream
TTITLE9=Rock Skippin' At The Blue Note
TTITLE10=All Day Long
TTITLE11=Lotus Blossom
TTITLE12=Smada
TTITLE13=Midriff
TTITLE14=My Little Brown Book
TTITLE15=Lotus Blossom
EXTD=
EXTT0=
EXTT1=
EXTT2=
EXTT3=
EXTT4=
EXTT5=
EXTT6=
EXTT7=
EXTT8=
EXTT9=
EXTT10=
EXTT11=
EXTT12=
EXTT13=
EXTT14=
EXTT15=
PLAYORDER=
